<svg width="244" height="154" viewBox="0 0 244 154" fill="none" xmlns="http://www.w3.org/2000/svg">
<path d="M59.226 22.8274C66.9645 28.9207 74.9512 29.8108 84.4865 30.9897C82.0113 34.4384 79.6001 37.9325 77.2541 41.4702C74.8907 45.011 71.6504 49.5817 70.5286 53.6268C69.8358 56.1248 68.9654 60.7309 70.4018 63.0224C71.1785 64.4081 72.7035 65.5429 74.3004 65.9026C85.084 68.3317 95.8962 62.0288 103.174 54.5557C105.951 51.7037 106.83 49.1335 110.274 47.0491C117.903 42.4325 123.055 46.7934 129.731 50.3809C137.816 54.8325 146.062 59.411 153.781 64.5315C163.159 70.7526 172.187 77.7531 181.174 84.5687L190.29 91.4861C194.765 94.8863 200.512 98.1609 198.403 104.845C197.702 107.108 196.122 108.994 194.017 110.08C189.898 112.201 186.351 110.698 182.819 108.482C180.389 106.957 177.812 105.489 175.347 104.009L154.675 91.6054C153.01 90.6155 149.764 88.3118 148.072 87.6876C145.376 86.6932 143.497 88.7486 145.259 91.6862L145.337 91.8127C145.654 91.9977 145.974 92.1787 146.296 92.3554C148.886 93.8048 151.63 95.5218 154.188 97.0609L168.11 105.425L175.859 110.041C177.182 110.827 180.673 112.642 181.33 113.923C182.346 115.901 181.47 119.133 180.418 120.997C178.514 124.725 173.326 126.837 169.338 125.495C166.7 124.607 163.147 122.288 160.631 120.825L147.357 113.121L141.418 109.718C140.242 109.043 139.128 108.349 137.846 107.797C137.115 107.356 134.749 107.39 134.29 108.202C133.435 109.718 134.061 110.993 135.308 111.781C137.988 113.477 140.722 115.007 143.41 116.572C149.981 120.399 156.525 124.151 163.124 127.922C164.005 128.424 165.123 129.149 165.334 130.183C165.655 132.003 164.667 134.155 163.768 135.684C161.277 139.915 156.124 141.066 151.725 139.346C149.009 138.284 146.229 136.845 143.55 135.554L129.77 128.92C127.832 127.983 124.673 125.661 123.381 128.473C123.079 129.128 122.857 129.708 123.136 130.43C123.335 130.943 123.943 131.468 124.405 131.746C126.855 132.969 129.415 134.19 131.874 135.379L147.839 143.122C146.746 145.54 144.983 147.595 142.76 149.044C138.735 151.68 134.5 151.694 129.924 150.921C123.612 149.855 117.489 148.15 111.236 146.832C116.534 140.538 117.901 134.405 112.478 127.386C109.57 123.623 105.593 122.581 101.039 122.109C101.786 114.812 97.8042 108.015 90.6163 105.855C89.2702 105.45 88.0593 105.323 86.6624 105.173C86.7096 99.5526 85.4155 93.7203 80.3426 90.5258C77.4233 88.698 73.7216 87.5588 70.2864 88.319C65.8067 89.3103 63.1585 92.9561 60.8683 96.597C58.0152 90.3239 54.1018 86.132 46.6362 86.2204C43.1557 86.2616 40.346 88.0108 38.025 90.4998C36.7092 89.0248 28.8661 79.8323 28.5407 78.6943C28.3637 78.0756 28.9382 76.8443 29.2004 76.2999C30.2114 74.2007 31.4763 72.1626 32.6166 70.1292L38.9868 58.7668L59.226 22.8274Z" fill="#FC9E49"/>
<path d="M125.537 19.2727C129.992 19.1627 134.45 19.1706 138.905 19.2962C141.808 19.3775 145.154 19.4582 148.004 19.8369C161.135 21.5798 170.504 27.7628 183.677 22.2679C187.166 28.2225 190.615 34.5729 194.016 40.6157L214.718 77.3915C212.542 79.1965 200.16 90.0915 198.658 90.3506C197.742 90.5085 196.924 90.1436 196.171 89.6559C194.891 88.8282 193.715 87.7502 192.53 86.7878C190.533 85.1599 188.519 83.554 186.486 81.9702C180.1 76.9831 173.582 72.1676 166.939 67.529C154.411 58.7732 141.351 50.8023 127.837 43.6622C125.589 42.4784 123.28 41.2625 120.97 40.1981C120.502 40.0417 119.762 39.6966 119.271 39.6562C114.476 39.2618 108.446 42.0635 104.825 45.0358C102.499 46.945 101.138 49.2539 99.307 51.3989C94.824 56.6506 88.6257 60.185 81.7889 61.1573C80.1475 61.2642 76.3872 61.806 75.062 60.7713C73.6216 59.6469 74.9037 55.2141 75.5386 53.8391C76.128 52.5628 77.4643 50.7205 78.2993 49.4757L83.231 42.1789C85.8643 38.2969 88.522 34.4316 91.2041 30.5832C92.5674 28.6231 93.9181 26.5526 95.4373 24.7187C96.3667 23.6656 97.9545 23.0348 99.3019 22.7452C104.555 21.6157 109.874 20.2882 115.231 19.7811C118.638 19.4587 122.129 19.3782 125.537 19.2727Z" fill="#FC9E49"/>
<path d="M39.7442 0.0103063C41.596 -0.094677 42.7344 0.999424 44.2663 1.95322L49.475 5.17262L55.1442 8.58756C56.5945 9.45335 59.0471 10.4641 59.2255 12.2656C58.5761 14.2847 56.0419 18.4722 54.8819 20.5288L46.9074 34.6732L29.8844 64.9099C26.9431 70.1332 24.0052 75.3933 21.0185 80.5924C20.4327 81.6122 20.0576 82.0365 19.2517 82.8673C19.1772 82.9183 19.0482 82.9174 18.9399 82.9319C17.6905 82.4896 16.6484 81.8228 15.5343 81.1251C10.9605 78.2604 6.30688 75.505 1.7085 72.6842C-0.0348044 71.6148 -0.475657 70.6464 0.532176 68.8101C3.09529 64.1403 5.75009 59.5012 8.37338 54.8631L23.2262 28.5055L33.4471 10.2968C35.146 7.27173 36.8469 4.21592 38.5659 1.19968C38.8459 0.708402 39.2992 0.352809 39.7442 0.0103063Z" fill="#FC9E49"/>
<path d="M202.361 0.00488084C203.84 -0.0678939 204.353 0.678705 205.031 1.87262C207.442 6.1191 209.807 10.3947 212.2 14.6529L227.03 41.022L237.586 59.7708C239.367 62.9303 242.08 67.4298 243.547 70.6279C242.065 72.5951 240.08 73.5498 238.012 74.8135L231.824 78.5883C230.518 79.3858 226.235 82.146 225.107 82.6129C224.046 82.7613 223.42 82.5306 222.805 81.6409C221.476 79.7172 220.377 77.403 219.227 75.3709L210.709 60.2302L193.423 29.5485L187.309 18.6585C186.459 17.142 183.802 13.1735 183.97 11.57C184.862 10.1414 192.741 5.86129 194.787 4.5189C196.246 3.56107 200.983 0.521872 202.361 0.00488084Z" fill="#FC9E49"/>
<path d="M72.596 93.0389C77.2596 93.2734 80.9767 96.7255 81.973 101.25C82.4295 103.323 80.8317 106.068 79.6641 107.713C76.1748 112.561 72.6569 117.388 69.1106 122.194C67.3819 124.544 65.3285 127.59 63.3046 129.643C62.5668 130.391 61.1692 130.729 60.1398 130.906C57.9002 130.99 55.7057 130.26 53.9632 128.851C51.982 127.26 50.7234 124.94 50.4709 122.413C50.1097 118.567 51.8113 116.973 53.987 114.169C55.2412 112.558 56.475 110.932 57.6884 109.29C60.9683 104.844 64.1194 100.201 67.5039 95.8405C68.852 94.1033 70.4082 93.2338 72.596 93.0389Z" fill="#FC9E49"/>
<path d="M86.411 110.33C93.4356 109.781 98.933 118.224 94.625 124.087C91.3173 128.593 88.0388 133.121 84.7607 137.648C82.7998 140.357 81.5407 142.486 78.0323 143.193C72.5744 143.795 66.897 137.478 68.4848 132.098C68.7789 131.102 70.2431 129.089 70.8678 128.188C73.8362 123.929 76.9 119.738 80.0568 115.617C82.1473 112.862 82.7992 110.985 86.411 110.33Z" fill="#FC9E49"/>
<path d="M101.488 127.252C106.159 126.875 109.96 131.032 110.935 135.369C111.809 139.256 107.187 143.89 105.138 146.949C103.825 148.91 102.118 151.076 100.47 152.723C99.8242 153.37 98.4711 153.749 97.5905 153.936C91.5189 154.368 86.2401 148.548 87.8281 142.476C88.1281 141.328 89.6823 139.383 90.4463 138.5C92.7457 135.844 94.524 132.886 96.5138 130.013C97.7496 128.239 99.3728 127.507 101.488 127.252Z" fill="#FC9E49"/>
<path d="M47.4303 91.1323C51.8604 91.2719 54.5303 93.8958 55.9324 97.9744C57.5464 102.728 53.7675 105.891 51.2932 109.394C49.5391 111.878 48.054 113.635 44.8782 113.903C42.6467 113.806 40.9153 113.06 39.1939 111.616C37.2158 109.967 35.9918 107.586 35.8025 105.018C35.5206 101.457 38.8847 97.5935 40.9681 94.8638C42.5476 92.7944 44.7651 91.3525 47.4303 91.1323Z" fill="#FC9E49"/>
</svg>
