<svg width="253" height="134" viewBox="0 0 253 134" fill="none" xmlns="http://www.w3.org/2000/svg">
<path fill-rule="evenodd" clip-rule="evenodd" d="M98.3965 63.5178C108.221 70.3725 113.589 91.8458 113.589 91.8458C118.949 43.7905 75.1701 30.0594 75.1701 30.0594C75.1701 30.0594 74.2637 32.6247 75.1701 45.4799C76.0517 58.3917 88.5401 56.6516 98.3965 63.5178Z" fill="#FC9E49"/>
<path fill-rule="evenodd" clip-rule="evenodd" d="M71.581 104.705C75.17 96.1365 68.8969 49.7707 68.8969 37.7507C68.8969 25.767 73.356 18.8935 73.356 18.8935C67.119 15.4495 62.6686 0 62.6686 0C60.8531 4.29233 54.6162 13.7253 54.6162 13.7253C54.6162 13.7253 72.4859 98.7163 60.8531 108.969C49.2508 119.256 26.0026 121.009 12.6094 112.45C-0.812836 103.85 13.4824 76.3744 13.4824 76.3744C5.43279 85.8103 -0.812836 96.9732 0.0862317 108.969C0.97515 121.009 9.91218 132.987 31.3651 133.863C52.8021 134.728 67.992 113.281 71.581 104.705Z" fill="#FC9E49"/>
<path fill-rule="evenodd" clip-rule="evenodd" d="M185.983 72.9478C171.434 74.5995 163.438 99.028 162.791 101.074C163.132 100.162 165.104 96.2206 175.258 90.9741C186.882 84.9416 210.103 97.8476 210.103 97.8476C199.398 107.283 179.71 108.141 163.634 106.409C147.552 104.67 148.435 70.3724 147.552 43.7904C146.64 17.1896 141.286 19.7664 141.286 19.7664C141.286 19.7664 142.183 7.72471 130.582 62.6505C118.949 117.546 56.3911 131.268 56.3911 131.268C91.2604 136.439 116.272 120.133 125.183 102.981C134.137 85.8103 140.366 49.7707 140.366 49.7707C140.366 101.273 144.855 114.127 158.27 120.133C171.678 126.167 197.597 117.579 216.37 110.701C228.316 106.338 242.291 108.141 242.291 108.141L253 91.8456C253 91.8456 237.793 92.6794 227.095 88.4176C216.37 84.1194 201.185 71.2468 185.983 72.9478Z" fill="#FC9E49"/>
</svg>
