<svg width="221" height="212" viewBox="0 0 221 212" fill="none" xmlns="http://www.w3.org/2000/svg">
<path d="M133.259 0.528648C147.653 -2.27339 153.667 6.46755 160.66 17.2035C162.904 20.6483 165.186 24.3275 168.752 26.5521C171.318 28.1531 174.339 28.9877 177.229 29.7874C183.03 31.3927 189.217 32.7222 194.271 36.1527C204.652 43.2014 203.033 54.9495 202.8 65.8538C202.741 68.5821 202.59 71.4554 203.263 74.1214C205.556 83.2076 217.544 90.0495 219.753 101.866C221.581 111.64 215.628 119.03 209.868 126.151C207.985 128.479 205.958 130.856 204.562 133.519C199.689 142.802 206.438 157.351 200.244 168.363C195.502 176.79 185.648 178.844 177.057 181.205C173.638 182.146 170.121 183.131 167.312 185.398C163.198 188.72 160.641 193.993 157.686 198.288C153.356 204.581 148.744 209.459 140.963 210.885C129.85 212.526 119.85 203.872 110.226 203.729C104.716 203.646 98.8792 206.668 93.7441 208.467C90.9911 209.434 88.1327 210.229 85.2451 210.666C71.6953 212.726 65.6744 203.381 59.1875 193.419C57.0173 190.088 54.7335 186.395 51.2441 184.291C48.7817 182.807 45.9024 182.012 43.1533 181.249C36.9645 179.533 30.244 178.125 24.9961 174.223C15.3488 167.048 17.0761 155.264 17.3447 144.746C17.4259 141.567 17.516 138.101 16.2734 135.111C15.0768 132.231 13.0837 129.747 11.1445 127.339C6.6101 121.708 1.24253 115.692 0.192381 108.263C-1.14517 98.8018 4.73417 91.5441 10.3154 84.6556C12.1989 82.3309 14.1704 80.0045 15.5752 77.348C20.3309 68.3548 13.7588 53.7408 19.7275 42.8148C24.4932 34.0913 34.4817 32.1049 43.2705 29.6517C46.4454 28.7654 49.8856 27.7965 52.5234 25.7376C57.2698 22.0332 60.6149 14.8821 64.2812 10.0101C68.0193 5.04268 72.6193 1.01151 78.9746 0.113609C79.6148 0.00478413 80.3237 0.00664446 81.0039 0.0100935H82.1533C92.2679 0.121653 101.793 7.35411 110.32 7.1888C116.829 7.06258 126.148 1.91309 133.259 0.528648ZM81.5967 10.973C78.4765 11.1907 76.3242 12.9597 74.3398 15.2503C69.1248 21.2703 66.0996 29.2469 59.7344 34.2777C56.6572 36.7097 53.0234 38.2479 49.3174 39.4486C43.8001 41.2363 34.3285 42.4663 30.4492 46.8109C26.5889 51.1351 28.4057 62.3437 28.46 67.8802C28.4921 71.1799 28.3281 74.7334 27.3672 77.9115C24.6396 86.931 16.6497 92.5163 12.4707 100.61C11.5899 102.315 11.0067 104.074 11.1387 106.014C11.6652 113.744 24.8528 123.359 27.5107 133.687C28.3342 136.886 28.5117 140.258 28.4619 143.549C28.3755 149.246 26.3603 160.82 31.1855 164.898C33.6801 167.006 37.105 168.03 40.1904 168.916C47.3387 170.97 55.2627 172.428 60.8984 177.652C66.9265 183.239 72.0853 195.289 77.8115 198.826C79.3263 199.763 80.9209 200.036 82.6807 199.883C85.4592 199.644 88.2277 198.678 90.834 197.74C96.982 195.529 103.312 192.587 109.974 192.596C120.627 192.609 129.407 199.817 138.986 199.981C143.179 199.242 145.913 195.749 148.228 192.446C151.741 187.43 154.667 181.692 159.267 177.554C167.963 169.732 184.485 169.951 189.599 164.184C190.907 162.707 191.479 160.786 191.758 158.869C193.097 149.644 189.75 139.962 193.434 130.965C194.701 127.867 196.612 125.053 198.641 122.408C202.191 117.777 209.956 110.329 208.822 103.986C207.321 95.5936 194.845 87.6518 192.381 76.39C191.629 72.9599 191.556 69.4048 191.666 65.9085C191.824 60.9077 192.878 53.9821 191.102 49.2279C190.466 47.5252 189.316 46.2334 187.816 45.2279C185.035 43.361 181.406 42.4239 178.209 41.5462C172.897 40.0883 167.488 38.8427 162.734 35.9378C160.469 34.5534 158.566 32.8794 156.84 30.8646C152.625 25.9461 146.485 13.5538 140.902 11.4437C139.095 10.7607 137.036 11.0182 135.187 11.3978C127.674 12.9393 120.994 17.0116 113.293 18.1175C101.279 19.8427 92.4547 11.5668 81.5967 10.973Z" fill="#FC9E49"/>
<path d="M108.29 45.1402L110.039 45.0719L110.046 56.2467C97.7907 56.2523 85.9777 60.825 76.9132 69.0722C67.2006 77.7413 61.5956 90.206 60.8864 103.146C60.2411 116.183 64.842 128.935 73.6621 138.557C99.3377 167.042 146.362 155.941 157.217 119.515C158.701 114.537 159.094 110.516 159.346 105.355L170.313 105.353C170.393 111.921 169.453 116.896 167.772 123.113C165.079 131.429 161.35 138.333 155.598 144.969C145.164 157.064 130.33 164.489 114.395 165.594C98.3226 166.793 82.4427 161.483 70.3248 150.857C58.3209 140.396 50.9703 125.591 49.894 109.705C48.7238 93.5703 54.1072 77.6451 64.8271 65.5297C76.4431 52.3713 91.0258 46.2162 108.29 45.1402Z" fill="#FC9E49"/>
<path d="M149.475 58.038C152.141 59.8182 155.467 63.1935 158.338 65.009C153.07 71.2993 147.781 78.1404 142.625 84.5781L110.46 124.771C109.252 123.338 105.978 120.252 104.531 118.808L92.8929 107.174C89.9859 104.23 87.0498 101.315 84.0853 98.4295C86.5565 95.9859 89.7038 92.9662 92.001 90.4347C93.2387 91.9186 95.1214 93.5382 96.4674 94.9812C100.476 99.2778 105.746 103.835 109.572 108.206C112.29 104.321 117.104 98.6665 120.148 94.8645L139.723 70.3819C141.997 67.5399 147.662 60.8629 149.475 58.038Z" fill="#FC9E49"/>
</svg>
