<svg width="64" height="52" viewBox="0 0 64 52" fill="none" xmlns="http://www.w3.org/2000/svg">
<path d="M58.5439 0.459074C58.5439 0.459074 64.4642 -1.79179 63.9708 3.67458C63.8065 5.92548 62.3263 13.8035 61.1749 22.3247L57.2282 47.5664C57.2282 47.5664 56.8991 51.2644 53.9389 51.9074C50.9788 52.5504 46.5384 49.6565 45.7158 49.0135C45.0582 48.5313 33.3818 41.2961 29.2703 37.7592C28.1189 36.7944 26.8032 34.865 29.4345 32.6145L46.703 16.5368C48.6763 14.6074 50.6496 10.1057 42.4268 15.5721L19.4028 30.8459C19.4028 30.8459 16.7715 32.4537 11.8379 31.0066L1.14807 27.7909C1.14807 27.7909 -2.79892 25.3796 3.94386 22.9677C20.3897 15.4112 40.6181 7.69393 58.5439 0.459074Z" fill="#191654"/>
</svg>
