<svg width="60" height="60" viewBox="0 0 60 60" fill="none" xmlns="http://www.w3.org/2000/svg">
<path d="M44.0062 36.03C43.4034 35.7304 39.485 33.9326 38.8822 33.633C38.2794 33.3334 37.6765 33.3334 37.0737 33.9326C36.4709 34.5319 35.2652 36.3296 34.6624 36.9289C34.361 37.5281 33.7582 37.5281 33.1554 37.2285C31.0455 36.3296 28.9356 35.1311 27.1271 33.633C25.62 32.1349 24.113 30.3371 22.9073 28.5394C22.6059 27.9401 22.9073 27.3409 23.2087 27.0412C23.5102 26.7416 23.8116 26.1424 24.4144 25.8427C24.7158 25.5431 25.0172 24.9439 25.0172 24.6442C25.3186 24.3446 25.3186 23.7453 25.0172 23.4457C24.7158 23.1461 23.2087 19.5505 22.6059 18.0524C22.3045 15.955 21.7017 15.955 21.0989 15.955C20.7975 15.955 20.1946 15.955 19.5918 15.955C18.989 15.955 18.0847 16.5543 17.7833 16.8539C15.9749 18.6517 15.0706 20.749 15.0706 23.146C15.372 25.8427 16.2763 28.5394 18.0847 30.9364C21.4003 35.7304 25.62 39.6255 30.7441 42.0225C32.2511 42.6217 33.4568 43.221 34.9638 43.5206C36.4709 44.1199 37.978 44.1199 39.7864 43.8202C41.8963 43.5206 43.7048 42.0225 44.9104 40.2247C45.5133 39.0262 45.5133 37.8277 45.2118 36.6292C45.2118 36.6292 44.609 36.3296 44.0062 36.03ZM51.5415 8.76404C39.7864 -2.92135 20.7975 -2.92135 9.04237 8.76404C-0.602825 18.352 -2.4113 33.0337 4.21977 44.7191L0 60L15.9749 55.8052C20.496 58.2023 25.3186 59.4007 30.1412 59.4007C46.7189 59.4007 59.9811 46.2172 59.9811 29.7379C60.2825 21.9475 56.9669 14.4569 51.5415 8.76404ZM43.4034 50.7116C39.485 53.1086 34.9638 54.6068 30.1412 54.6068C25.62 54.6068 21.4003 53.4082 17.4819 51.3109L16.5777 50.7116L7.2339 53.1086L9.64519 44.1199L9.04237 43.221C1.80847 31.236 5.42542 16.2547 17.1805 8.76404C28.9356 1.27342 44.0062 5.16854 51.2401 16.5543C58.474 28.2397 55.1585 43.5206 43.4034 50.7116Z" fill="#191654"/>
</svg>
