<?xml version="1.0" encoding="UTF-8" standalone="no"?>
<!-- Created with Inkscape (http://www.inkscape.org/) -->

<svg
   version="1.1"
   id="svg1"
   width="1437.344"
   height="738.74213"
   viewBox="0 0 1437.344 738.74213"
   sodipodi:docname="логотип.svg"
   inkscape:version="1.4.3 (0d15f75042, 2025-12-25)"
   xmlns:inkscape="http://www.inkscape.org/namespaces/inkscape"
   xmlns:sodipodi="http://sodipodi.sourceforge.net/DTD/sodipodi-0.dtd"
   xmlns="http://www.w3.org/2000/svg"
   xmlns:svg="http://www.w3.org/2000/svg">
  <defs
     id="defs1" />
  <sodipodi:namedview
     id="namedview1"
     pagecolor="#505050"
     bordercolor="#eeeeee"
     borderopacity="1"
     inkscape:showpageshadow="0"
     inkscape:pageopacity="0"
     inkscape:pagecheckerboard="0"
     inkscape:deskcolor="#505050"
     inkscape:zoom="0.36006944"
     inkscape:cx="506.84667"
     inkscape:cy="547.11668"
     inkscape:window-width="1920"
     inkscape:window-height="1011"
     inkscape:window-x="0"
     inkscape:window-y="0"
     inkscape:window-maximized="1"
     inkscape:current-layer="g1">
    <inkscape:page
       x="0"
       y="0"
       inkscape:label="1"
       id="page1"
       width="1437.344"
       height="738.74213"
       margin="0.94913733 0 0"
       bleed="0" />
  </sodipodi:namedview>
  <g
     id="g1"
     inkscape:groupmode="layer"
     inkscape:label="1"
     transform="translate(-1.3279903,-350.15436)">
    <path
       id="path3"
       style="fill:#fc9e49;fill-opacity:1;fill-rule:nonzero;stroke:none;stroke-width:2.85686"
       d="M 451.67557,351.13855 C 382.21192,350.0557 261.96985,374.15893 187.22563,408.82271 87.566702,455.04111 -20.754849,537.36627 5.242631,608.13942 c 31.182705,63.48246 77.876139,13.70962 77.876139,13.70962 0,0 -28.733432,-7.69621 -30.273298,-17.4467 -1.816965,-11.50175 -25.963647,-63.25378 174.822688,-158.02465 0,0 -74.62027,139.81268 -108.19129,247.57656 -60.299905,38.04777 -114.0301454,94.0881 -101.608497,163.25573 0,0 60.1619,141.89943 303.281297,-83.16161 57.59443,-76.64405 73.03883,-133.81849 65.81954,-173.43751 v -0.004 h 0.004 c 16.38414,-16.97837 45.78413,-46.30785 48.38959,-41.0912 2.71689,5.44233 -63.10521,194.25037 -91.00824,303.04274 -99.11043,46.92119 -186.81975,93.14865 -191.56216,167.8214 -4.73952,74.6757 98.15147,67.8541 87.8696,34.9143 -10.40756,-33.3481 14.6186,-83.17359 92.43109,-130.21199 12.09884,35.15086 45.73637,21.09586 45.73637,21.09586 1.28845,-15.73844 3.19572,-31.79578 5.6412,-48.01709 15.07856,-6.89076 31.45175,-13.63207 49.20146,-20.1543 166.5725,-61.19124 280.5068,-87.32781 297.31365,-91.04173 1.27137,-0.27998 2.25499,-1.26472 2.52351,-2.53602 1.12845,-5.33663 5.35847,-20.22868 19.50563,-35.68435 2.07127,-2.26264 0.27664,-5.88716 -2.77451,-5.57005 -110.88362,11.60459 -252.70976,48.31486 -352.77155,86.85685 v -0.009 c 33.41678,-145.93164 99.15656,-284.45611 132.8276,-288.09862 17.18976,0.77708 5.94251,49.30607 5.94251,49.30607 -108.76378,67.97344 -98.16885,133.38483 -62.26659,147.40347 80.09511,14.45003 113.04571,-135.95785 113.04571,-135.95785 l 29.31918,-27.18908 c -23.79199,44.17858 -25.91679,125.3364 14.4336,135.52684 40.36182,10.20187 77.32787,-63.29608 77.32787,-63.29608 0,0 -7.6471,41.62949 29.31501,45.02915 36.96221,3.39968 63.73545,-53.10594 63.73545,-53.10594 0,0 -2.5516,26.7607 19.54333,32.71727 55.66036,7.64785 84.97793,-69.68216 84.97793,-69.68216 0,0 0.66938,-2.21795 0.91227,-2.87501 -0.3371,1.47698 -3.47872,12.59413 -16.40888,57.15269 -60.52558,33.92529 -191.53991,157.04315 -123.86358,200.64749 84.67757,54.57187 149.76375,-133.8738 149.76375,-133.8738 0,0 86.85659,-261.06881 90.67329,-271.89063 3.8168,-10.81894 -8.90969,-28.62641 -33.72149,-23.54404 v 0 c -24.82619,5.09378 -85.91604,197.90615 -111.35927,191.54961 -25.45755,-6.37368 42.63663,-123.4615 41.99096,-147.64201 -0.63136,-24.18052 -55.99756,-29.90515 -57.90595,0.63191 -1.90838,30.5542 -66.64154,169.03995 -84.4255,170.73408 -17.78117,1.69414 28.77754,-126.98221 37.24526,-162.53593 -11.00746,-13.54725 -32.1662,-27.09131 -50.79588,3.37717 -36.39644,-52.47207 -97.34992,22.01454 -112.57701,42.33829 -15.00142,19.98664 -40.67608,31.03654 -41.48457,31.26511 0.16284,-0.77993 13.283,-65.98275 -26.24746,-65.98275 -58.33437,0 -78.10745,45.53871 -78.71311,46.94999 0.22855,-1.22273 6.15523,-34.24892 -25.41887,-34.24892 -38.1506,0.59137 -72.10456,34.36512 -88.85722,54.28604 -27.54021,-41.38456 -89.04252,-48.24662 -128.03592,-26.13447 23.30919,-50.59226 41.35025,-90.8178 37.55917,-96.50296 -8.66488,-13.0016 -15.88576,-13.00238 -15.88576,-13.00238 0,0 134.32139,-31.77548 210.87113,-21.66504 l 2.89174,24.55679 c 0,0 51.99296,-49.11247 18.7733,-75.10995 -8.30491,-6.49936 -25.81673,-9.65761 -48.97128,-10.01856 z m 910.02383,23.4436 c -9.6638,0.11401 -18.6421,3.82893 -22.1381,13.15304 -7.9934,21.31222 -61.2781,188.4875 -94.5778,181.82814 -11.3246,-19.31528 49.289,-132.54058 43.2924,-149.19038 -5.9937,-16.65268 -46.6229,-43.95742 -58.6132,-9.98928 -11.9875,33.96529 -46.9624,172.7396 -81.2534,177.16204 -27.4887,-13.90437 51.2826,-117.22163 41.2921,-157.18349 -9.9904,-39.96472 -56.6092,-25.31114 -58.609,-5.32734 -1.997,19.98092 -22.6443,79.25714 -22.6443,79.25714 l -37.2997,8.65848 c 0,0 26.6408,-61.27359 19.9786,-71.26406 -6.6595,-9.99045 -40.9514,-27.97744 -55.6043,-9.99345 -14.6529,17.98113 -14.3275,89.9158 -21.6525,93.91254 -7.3278,3.99676 -22.64799,-2.66348 -23.97927,12.65503 -1.33417,15.32139 1.99992,18.64753 9.99348,22.64431 -10.65613,24.64332 -25.31001,65.26965 -25.31001,79.92253 0,14.65288 49.2878,25.31224 56.6128,9.32807 7.3278,-15.9842 21.3093,-86.28772 21.3093,-86.28772 l 47.2931,-20.94525 c 0,0 -31.3053,104.13614 20.6439,104.019 51.9522,-0.11723 71.9337,-68.05427 71.9337,-68.05427 0,0 -11.9895,53.28506 29.3066,51.9509 41.2932,-1.33129 80.5879,-87.25023 80.5879,-87.25023 0,0 -23.9757,70.59866 22.6484,70.59866 46.6211,0 77.2565,-61.92812 85.2501,-60.59683 6.2994,19.23242 -15.5237,118.39273 -458.61511,156.5976 -3.28827,0.28283 -6.44281,2.67497 -6.58284,5.9718 -0.37138,8.79059 -3.3374,27.46027 -8.54548,35.76804 -2.85686,4.55671 -0.54121,7.61669 4.81256,7.13101 162.79287,-14.77571 449.90857,-70.99875 485.94217,-163.08415 25.5747,-77.04971 3.3059,-79.68333 -16.5721,-71.49842 -22.9949,9.46768 -52.6653,43.81724 -59.6132,39.40051 -14.0901,-8.96485 49.1852,-162.81937 41.1916,-176.14093 -4.4949,-7.49339 -18.0538,-13.29963 -30.4784,-13.15304 z M 723.09328,519.27383 c 0.52711,-0.006 1.00284,0.0526 1.4271,0.17576 19.85234,5.77944 -13.36093,119.4121 -57.16521,141.56141 -3.66831,1.8541 -8.08973,-0.22917 -8.90961,-4.26019 -15.37676,-75.83475 48.30987,-137.29174 64.64772,-137.47698 z m -431.41344,57.50422 c 4.6332,-0.0646 9.29229,0.42801 13.94399,1.56932 58.87146,14.44432 -56.33691,286.862 -232.916993,268.61807 -4.645265,-0.47995 -8.356013,-4.10527 -8.821696,-8.75055 -4.036754,-40.12755 15.086101,-71.71228 43.191969,-96.15563 -2.45976,12.99303 -3.77704,24.83871 -3.6199,35.06916 46.21839,40.44182 40.42702,46.2159 62.09919,-38.99875 2.87973,-11.3246 7.2478,-24.57189 12.62157,-39.04478 48.54389,-21.17796 94.06318,-29.66232 94.06318,-29.66232 0,0 3.51304,-17.56724 -9.66286,-29.86319 -4.08245,-3.81107 -31.60588,1.90749 -66.88249,15.869 3.88821,-9.16482 7.96223,-18.51751 12.1361,-27.94233 20.14808,-22.56531 51.41554,-50.25534 83.84794,-50.708 z m 234.44028,62.208 c 0.1294,-0.006 0.23111,0.019 0.3055,0.0753 7.84783,5.96798 -31.41194,73.83123 -44.61067,63.4551 -12.88937,-10.12182 38.91377,-63.28423 44.30517,-63.53045 z m 337.69764,77.75897 c 1.73044,0.0596 3.23668,1.70553 2.71181,3.66174 -7.93068,29.87997 -67.42447,116.17096 -81.86012,102.04373 -17.4584,-17.09547 52.09972,-87.95811 77.41157,-105.19074 0.56065,-0.37996 1.15985,-0.5346 1.73674,-0.51473 z" />
  </g>
</svg>
