<svg width="382" height="196" viewBox="0 0 382 196" fill="none" xmlns="http://www.w3.org/2000/svg">
<path d="M49.3374 15.2666C75.7371 3.06678 123.636 -4.23258 132.437 2.66699C141.237 9.56699 127.437 22.5674 127.437 22.5674L126.637 16.0674C106.378 13.3728 70.8788 21.7334 70.7378 21.7666C70.7667 21.7668 72.6547 21.7934 74.937 25.167C75.937 26.667 71.137 37.3667 64.937 50.7666C75.3369 44.8666 91.6369 46.6672 98.937 57.667C103.437 52.367 112.438 43.4666 122.538 43.2666C130.837 43.2667 129.238 52.0672 129.238 52.3672C129.438 52.0655 134.639 39.9669 150.137 39.9668C160.633 39.9668 157.14 57.2523 157.137 57.4668C157.337 57.3668 164.137 54.4669 168.137 49.167C172.237 43.767 188.338 24.067 198.038 37.9668C203.038 29.8671 208.638 33.4674 211.538 37.0674C209.237 46.4676 196.938 80.5657 201.637 80.167C206.337 79.667 223.537 42.9674 224.038 34.8672C224.638 26.7672 239.237 28.2671 239.437 34.667C239.637 41.0669 221.538 72.0662 228.337 73.7666C235.037 75.4666 251.237 24.3668 257.837 22.9668V23.167C264.337 21.767 267.738 26.4672 266.738 29.3672C265.739 32.2635 242.797 101.289 242.738 101.467C242.738 101.467 225.538 151.467 203.038 136.967C185.038 125.367 219.837 92.7666 235.837 83.7666C238.963 73.1408 240.013 69.6907 240.203 68.7891C240.146 69.0406 240.038 69.3672 240.038 69.3672C240.021 69.4111 232.322 89.8649 217.538 87.8672C211.638 86.2672 212.337 79.167 212.337 79.167C212.337 79.167 205.237 94.1666 195.437 93.2666C185.66 92.3683 187.628 81.4173 187.637 81.3672C187.6 81.4409 177.817 100.862 167.137 98.167C156.437 95.4667 157.037 73.9665 163.337 62.2666L155.538 69.4668C155.538 69.4668 146.737 109.367 125.538 105.567C116.038 101.867 113.238 84.4668 142.038 66.4668C142.054 66.3975 145.025 53.5666 140.437 53.3672C131.537 54.3684 114.138 91.0675 105.238 129.767C131.738 119.567 169.338 109.867 198.738 106.767C199.438 106.667 199.937 107.667 199.437 108.267C195.637 112.366 194.538 116.366 194.238 117.767C194.138 118.167 193.838 118.467 193.538 118.467C189.138 119.367 158.938 126.367 114.738 142.567C110.038 144.267 105.738 146.067 101.738 147.867C101.038 152.167 100.538 156.367 100.238 160.567C100.238 160.567 91.3372 164.267 88.1372 154.967C67.5375 167.367 60.8375 180.667 63.6372 189.467C66.3372 198.167 39.0374 199.967 40.3374 180.167C41.6374 160.367 64.8373 148.067 91.1372 135.667C98.5372 106.767 115.938 56.6666 115.238 55.2666C114.537 53.8677 106.737 61.6672 102.437 66.167C104.337 76.667 100.237 91.867 84.937 112.167C20.5372 171.867 4.5376 134.267 4.5376 134.267C1.2379 115.867 15.4372 101.067 31.437 90.9668C40.337 62.3668 60.1372 25.2666 60.1372 25.2666C6.83731 50.3666 13.2378 64.067 13.7378 67.167C14.1378 69.767 21.7378 71.7666 21.7378 71.7666C21.7378 71.7666 9.3376 84.967 1.0376 68.167C-5.86239 49.367 22.9374 27.5666 49.3374 15.2666ZM80.7378 60.167C70.9378 57.667 60.9374 66.367 54.8374 73.167C53.7374 75.667 52.6372 78.1674 51.6372 80.5674C60.9372 76.8674 68.2374 75.3672 69.3374 76.3672C72.8198 79.5511 71.9459 84.2199 71.937 84.2666C71.8635 84.2807 59.8978 86.5843 47.0376 92.167C45.6376 96.067 44.5378 99.5674 43.7378 102.567C37.9379 125.167 39.5375 123.567 27.2378 112.867C27.2378 110.167 27.5378 106.967 28.2378 103.567C20.7378 110.067 15.6378 118.467 16.7378 129.067C16.838 130.267 17.8377 131.267 19.0376 131.367H18.937C65.8367 136.267 96.3371 63.9679 80.7378 60.167ZM229.538 97.8672C229.738 97.1672 228.937 96.6674 228.337 97.0674C221.637 101.668 203.238 120.467 207.837 124.967C211.637 128.667 227.437 105.767 229.538 97.8672ZM354.937 9.56738C357.137 3.86738 366.837 6.06738 368.937 9.56738C371.037 13.0675 354.338 53.8676 358.038 56.2676C359.838 57.4663 367.738 48.3671 373.837 45.8672L374.137 45.9668C379.437 43.8668 385.337 44.5671 378.538 64.9668C368.938 89.3668 292.837 104.267 249.637 108.167C248.237 108.267 247.538 107.467 248.337 106.268C249.737 104.068 250.637 99.0678 250.637 96.7676C250.637 95.8676 251.437 95.167 252.337 95.167C369.837 85.067 375.637 58.767 373.937 53.667C371.836 53.3693 363.737 69.7676 351.337 69.7676C338.963 69.7676 345.311 51.1456 345.337 51.0674C345.299 51.1506 334.917 73.7677 323.937 74.167C312.956 74.4661 316.127 60.414 316.137 60.3672C316.121 60.4225 310.816 78.3671 297.038 78.3672C283.267 78.3672 291.502 50.8861 291.538 50.7676L279.038 56.3672C279.032 56.3971 275.236 75.0709 273.337 79.2676C271.437 83.4668 258.338 80.6672 258.337 76.7676C258.337 72.8676 262.238 62.0674 265.038 55.5674C262.938 54.4674 262.037 53.6671 262.437 49.5674C262.837 45.4674 266.937 47.267 268.837 46.167C270.737 45.0668 270.638 26.0679 274.538 21.2676C278.338 16.4676 287.438 21.2672 289.238 23.8672C291.037 26.5678 283.937 42.7676 283.937 42.7676L293.837 40.4668C293.864 40.3901 299.339 24.7538 299.837 19.4668C300.338 14.167 312.737 10.2674 315.337 20.8672C317.937 31.4672 297.037 58.8674 304.337 62.5674C313.337 61.3674 322.637 24.5678 325.837 15.5674C328.937 6.46747 339.737 13.767 341.337 18.167C342.937 22.667 326.837 52.6676 329.837 57.7676C338.737 59.5673 352.837 15.2689 354.937 9.56738ZM139.337 76.2666C138.535 75.5699 124.038 90.3677 127.538 93.0674C131.038 95.8663 141.437 77.8666 139.337 76.2666ZM191.837 44.5674C188.237 43.4674 170.138 60.1669 174.337 80.9668C174.637 82.0668 175.738 82.5674 176.738 82.0674H176.637C188.337 76.2674 197.137 46.0675 191.837 44.5674Z" fill="#191654"/>
</svg>
