<svg width="1920" height="1921" viewBox="0 0 1920 1921" fill="none" xmlns="http://www.w3.org/2000/svg">
<path d="M1944.39 1497.78C1867.67 1547.95 1776.81 1594.55 1669.27 1628.73C1602.49 1649.95 1543.34 1651.35 1494.67 1631.9C1467.81 1621.16 1446.22 1604.89 1429.58 1585.21C1361.77 1630 1287.86 1671.42 1216.11 1701.96C1129.77 1738.71 1038.3 1763.32 962.814 1750.76C919.253 1743.51 883.488 1727.24 857.145 1702.76C768.562 1760.25 669.385 1812.26 576.172 1848.06C522.235 1868.78 469.112 1884.54 420.394 1892.49C372.464 1900.31 324.531 1901.3 283.387 1888.39C247.803 1877.22 218.271 1858.87 198.139 1832.04C195.105 1827.99 192.364 1823.86 189.896 1819.65C118.186 1855.7 43.9208 1890.3 -23.623 1920.57L-23.624 1864.36V422.897C53.2061 372.598 144.243 325.86 252.032 291.604C318.808 270.383 377.966 268.981 426.634 288.434C453.495 299.17 475.088 315.445 491.721 335.12C559.532 290.326 633.443 248.906 705.192 218.37C791.534 181.624 883 157.012 958.488 169.571C1002.05 176.824 1037.81 193.094 1064.16 217.567C1152.74 160.085 1251.92 108.075 1345.13 72.2676C1399.07 51.548 1452.19 35.7922 1500.91 27.8418C1548.84 20.0202 1596.77 19.0265 1637.92 31.9424C1673.5 43.1129 1703.03 61.4642 1723.17 88.293C1726.2 92.336 1728.94 96.4699 1731.41 100.676C1802.93 64.7291 1876.99 30.2172 1944.39 0V1497.78Z" fill="url(#paint0_linear_53_673)"/>
<path d="M1940.27 47.0967C1945.3 44.8203 1951.23 47.0543 1953.5 52.0859C1955.78 57.1174 1953.55 63.0417 1948.51 65.3184C1870.93 100.423 1786.39 140.5 1708.28 181.349C1704.91 225.189 1679.62 273.565 1646.35 315.854C1611.73 359.87 1567.21 398.885 1525.85 421.062C1505.21 432.127 1484.69 439.364 1466.16 440.439C1447.34 441.532 1429.94 436.227 1417.6 421.577L1417.12 420.999C1407.18 408.84 1405.09 394.624 1409.21 379.964C1413.23 365.69 1423.05 351.07 1436.42 336.474C1463.26 307.185 1507.34 274.855 1560.54 241.792C1599.01 217.882 1642.63 193.356 1688.63 169.077C1688.23 152.665 1683.72 137.958 1674.46 125.439C1663.9 111.172 1646.48 98.8286 1619.57 90.3799L1618.33 89.9971C1592.12 82.0756 1558.33 81.3507 1518.88 87.0449C1478.94 92.8112 1433.91 105.053 1386.36 122.256C1291.27 156.661 1186.99 210.587 1094.65 270.798C1084.55 277.385 1074.6 284.041 1064.83 290.749C1066.23 294.463 1067.46 298.254 1068.51 302.111C1080.74 346.895 1069.49 400.25 1047.11 448.892C1024.64 497.737 990.179 543.508 953.586 573.577C918.039 602.787 876.853 619.885 842.519 603.324L841.708 602.927L840.748 602.448L839.912 601.774C816.709 583.125 809.312 558.075 814.415 530.253C819.37 503.237 836.011 473.613 860.185 443.255C900.858 392.175 964.934 336.47 1039.57 283.95C1034.15 274.543 1027.05 266.024 1018.04 258.594C1001.97 245.338 979.368 235.14 948.437 229.99C887.009 219.77 802.513 241.686 712.438 282.042C636.194 316.201 557.225 362.988 487.053 412.455C492.3 430.105 494.656 449.025 494.386 468.202C493.009 565.917 422.717 679.326 302.687 681.021C287.862 681.23 275.44 679.423 265.784 675.156C255.815 670.751 248.681 663.625 245.534 653.869C242.52 644.524 243.624 634.17 246.948 623.848C250.298 613.446 256.188 602.176 263.971 590.371C294.923 543.421 359.851 482.1 439.005 422.673C446.92 416.73 454.989 410.801 463.189 404.898C455.472 386.332 443.742 370.413 427.897 358.642C396.143 335.051 345.308 326.23 270.584 349.978C155.257 386.628 60.4899 438.111 -17.8955 492.88C-22.4226 496.043 -28.657 494.937 -31.8203 490.41C-34.9832 485.883 -33.8785 479.649 -29.3516 476.485C50.4455 420.73 147.013 368.263 264.526 330.917C342.847 306.027 401.093 313.811 439.825 342.586C457.747 355.9 470.939 373.304 479.86 393.066C549.829 344.101 628.238 297.85 704.261 263.79C795.016 223.13 884.147 199.019 951.719 210.262H951.72C985.285 215.85 1011.4 227.186 1030.77 243.166C1041.25 251.813 1049.61 261.701 1056.05 272.521C1065.15 266.304 1074.38 260.139 1083.72 254.044C1177.12 193.148 1282.77 138.467 1379.56 103.449C1427.95 85.9404 1474.34 73.2667 1516.03 67.25C1557.58 61.2516 1595.18 61.761 1625.56 71.2988C1655.41 80.6698 1676.86 95.0512 1690.54 113.544C1700.66 127.222 1706.16 142.648 1707.98 158.955C1784.1 119.443 1865.55 80.9042 1940.27 47.0967ZM469.713 424.859C463.394 429.449 457.158 434.054 451.014 438.667C372.35 497.727 309.678 557.377 280.669 601.379C273.461 612.311 268.587 621.903 265.986 629.979C263.36 638.133 263.326 643.874 264.569 647.73C265.681 651.176 268.202 654.359 273.868 656.863C279.848 659.506 289.045 661.21 302.403 661.021C407.845 659.533 473.105 559.016 474.388 467.921C474.599 452.909 473.049 438.404 469.713 424.859ZM1047.8 302.619C975.52 353.791 914.341 407.351 875.831 455.714C852.462 485.063 838.17 511.599 834.087 533.86C830.219 554.951 835.43 572.07 851.594 585.493C874.572 596.268 906.61 586.293 940.889 558.125C974.876 530.196 1007.58 486.964 1028.94 440.532C1050.4 393.897 1059.68 345.698 1049.22 307.378C1048.78 305.775 1048.31 304.188 1047.8 302.619ZM1686.64 192.772C1645.19 214.883 1605.97 237.104 1571.1 258.778C1518.23 291.64 1476.08 322.799 1451.17 349.985C1438.67 363.627 1431.24 375.493 1428.46 385.378C1425.86 394.644 1427.29 402.043 1432.89 408.693C1440.18 417.346 1450.76 421.3 1465 420.474C1479.52 419.631 1497.12 413.772 1516.4 403.436C1554.88 382.808 1597.36 345.788 1630.63 303.489C1659.34 266.998 1680.28 227.742 1686.64 192.772Z" fill="#F59D4D"/>
<path d="M1618.62 1239.31C1633.44 1239.1 1645.86 1240.91 1655.52 1245.17C1665.49 1249.58 1672.62 1256.7 1675.77 1266.46C1678.78 1275.81 1677.68 1286.16 1674.35 1296.48C1671 1306.88 1665.12 1318.15 1657.33 1329.96C1626.38 1376.91 1561.45 1438.23 1482.3 1497.66C1474.38 1503.6 1466.31 1509.53 1458.11 1515.43C1465.83 1534 1477.56 1549.92 1493.41 1561.69C1525.16 1585.28 1576 1594.1 1650.72 1570.35C1765.79 1533.78 1860.39 1482.45 1938.67 1427.82C1943.2 1424.66 1949.43 1425.77 1952.59 1430.3C1955.75 1434.83 1954.64 1441.06 1950.11 1444.22C1870.42 1499.84 1774.03 1552.15 1656.78 1589.41C1578.46 1614.3 1520.21 1606.52 1481.48 1577.74C1463.56 1564.43 1450.36 1547.03 1441.44 1527.26C1371.47 1576.23 1293.07 1622.48 1217.04 1656.54C1126.29 1697.2 1037.16 1721.31 969.584 1710.07H969.583C936.018 1704.48 909.903 1693.14 890.535 1677.16C880.055 1668.52 871.699 1658.63 865.254 1647.81C856.159 1654.02 846.927 1660.19 837.579 1666.28C744.186 1727.18 638.533 1781.86 541.748 1816.88C493.355 1834.39 446.959 1847.06 405.277 1853.08C363.721 1859.08 326.125 1858.57 295.742 1849.03C265.89 1839.66 244.448 1825.28 230.765 1806.79C220.645 1793.11 215.142 1777.68 213.326 1761.37C137.021 1800.98 55.3649 1839.61 -19.5024 1873.48C-24.5343 1875.75 -30.4587 1873.52 -32.7349 1868.48C-35.0109 1863.45 -32.7771 1857.53 -27.7456 1855.25C49.9865 1820.09 134.736 1779.92 213.022 1738.98C216.393 1695.14 241.683 1646.76 274.95 1604.48C309.575 1560.46 354.088 1521.44 395.45 1499.27C416.088 1488.2 436.615 1480.97 455.146 1479.89C473.966 1478.8 491.367 1484.1 503.706 1498.75L504.184 1499.33C514.128 1511.5 516.217 1525.73 512.083 1540.4C508.059 1554.68 498.218 1569.31 484.824 1583.92C457.947 1613.23 413.799 1645.59 360.538 1678.68C322.122 1702.54 278.582 1727.02 232.669 1751.25C233.076 1767.66 237.581 1782.37 246.843 1794.89C257.4 1809.16 274.818 1821.5 301.732 1829.95C328.107 1838.23 362.346 1839.07 402.42 1833.28C442.368 1827.52 487.397 1815.28 534.943 1798.07C630.035 1763.67 734.313 1709.74 826.655 1649.53C836.757 1642.94 846.707 1636.29 856.479 1629.58C855.072 1625.87 853.844 1622.08 852.792 1618.22C840.567 1573.43 851.812 1520.08 874.193 1471.44C896.668 1422.59 931.124 1376.82 967.716 1346.75C1003.54 1317.31 1045.1 1300.18 1079.59 1317.4L1080.56 1317.88L1081.39 1318.55C1104.59 1337.2 1111.99 1362.25 1106.89 1390.08C1101.93 1417.09 1085.29 1446.72 1061.12 1477.07C1020.45 1528.15 956.369 1583.86 881.736 1636.38C887.151 1645.79 894.258 1654.31 903.263 1661.74C919.329 1674.99 941.936 1685.19 972.867 1690.34C1034.29 1700.56 1118.79 1678.64 1208.86 1638.29C1285.11 1604.13 1364.08 1557.34 1434.25 1507.88C1429 1490.23 1426.65 1471.3 1426.92 1452.13C1428.29 1354.41 1498.59 1241 1618.62 1239.31ZM488.408 1511.64C481.12 1502.98 470.539 1499.03 456.305 1499.86C441.782 1500.7 424.18 1506.56 404.901 1516.89C366.427 1537.52 323.944 1574.54 290.669 1616.84C261.964 1653.33 241.024 1692.59 234.659 1727.56C276.027 1705.49 315.166 1683.32 349.983 1661.69C402.92 1628.8 445.131 1597.61 470.083 1570.4C482.602 1556.75 490.045 1544.87 492.833 1534.97C495.447 1525.7 494.012 1518.29 488.408 1511.64ZM1069.71 1334.84C1046.73 1324.06 1014.69 1334.04 980.415 1362.2C946.427 1390.13 913.726 1433.37 892.362 1479.8C870.904 1526.43 861.626 1574.63 872.086 1612.95C872.524 1614.55 872.996 1616.14 873.503 1617.71C945.784 1566.54 1006.96 1512.98 1045.47 1464.62C1068.84 1435.27 1083.13 1408.73 1087.22 1386.47C1091.08 1365.38 1085.87 1348.26 1069.71 1334.84ZM1647.44 1263.47C1641.46 1260.82 1632.26 1259.12 1618.9 1259.31C1513.46 1260.8 1448.2 1361.31 1446.92 1452.41C1446.7 1467.42 1448.25 1481.92 1451.59 1495.47C1457.91 1490.88 1464.15 1486.28 1470.29 1481.66C1548.95 1422.6 1611.63 1362.95 1640.64 1318.95C1647.84 1308.02 1652.72 1298.43 1655.32 1290.35C1657.94 1282.2 1657.98 1276.46 1656.73 1272.6C1655.62 1269.15 1653.1 1265.97 1647.44 1263.47Z" fill="#F59D4D"/>
<defs>
<linearGradient id="paint0_linear_53_673" x1="2146.75" y1="1901.62" x2="-859.091" y2="-302.662" gradientUnits="userSpaceOnUse">
<stop stop-color="#191654"/>
<stop offset="0.585068" stop-color="#3731BA"/>
<stop offset="1" stop-color="#FC9E49"/>
</linearGradient>
</defs>
</svg>
