<svg width="1920" height="1689" viewBox="0 0 1920 1689" fill="none" xmlns="http://www.w3.org/2000/svg">
<path fill-rule="evenodd" clip-rule="evenodd" d="M1730.42 65.9524C1667.51 26.638 1570.69 -0.020032 1424.88 1.12947e-05L1419.03 0.0146597C1285.32 0.620532 1133.18 23.7392 974.419 65.9524C833.351 103.462 687.057 156.048 543.824 221.312L536.636 224.599C501.211 240.839 465.729 258.133 431.029 276.082C400.985 233.54 348.522 177.154 262.096 131.146C210.952 103.919 148.605 80.6954 72.957 65.9524C-1.86536 51.3704 -89.7008 45.0852 -192.581 51.4307L-192.592 51.4317C-597.312 76.4914 -788.413 351.381 -875.598 570.811C-963.071 790.911 -969.694 1007.89 -970.187 1038.68C-971.209 1051.58 -966.631 1064.56 -957.164 1074.04L-957.063 1074.14C-947.719 1083.5 -934.95 1088.09 -922.215 1087.24H-905.724C-880.871 1087.24 -860.724 1067.09 -860.724 1042.24L-860.723 1042.21C-860.713 1040.8 -860.333 987.356 -849.429 907.468C-838.314 826.04 -816.428 718.374 -773.58 610.744L-773.575 610.731C-716.471 467.171 -638.39 359.494 -541.428 285.524C-444.66 211.702 -326.515 169.477 -185.817 160.761C-183.536 160.62 -181.263 160.486 -179 160.358V1499.35C-198.682 1505.37 -217.947 1511.14 -236.665 1516.63C-248.392 1520.07 -258.215 1528.13 -263.878 1538.96C-269.413 1549.55 -270.504 1561.89 -266.939 1573.27L-261.658 1591.46C-258.318 1602.96 -250.529 1612.66 -240.016 1618.4C-229.503 1624.15 -217.134 1625.46 -205.649 1622.06C-186.389 1616.34 -132.01 1600.16 -60.0308 1576.95C-22.8999 1564.98 18.9146 1551.14 63.0078 1535.91C70.3671 1550 79.6791 1563.78 91.2872 1576.95C147.188 1640.36 256.339 1689.38 457.073 1688.38C632.829 1687.51 840.441 1647.8 1053.07 1576.95C1148.33 1545.21 1244.6 1507.23 1339.46 1463.69C1374.89 1447.45 1410.37 1430.16 1445.07 1412.21C1475.11 1454.75 1527.58 1511.14 1614 1557.15C1626.93 1564.03 1640.57 1570.66 1654.96 1576.95C1753.83 1620.22 1888.07 1648 2068.68 1636.86L2068.69 1636.86C2473.41 1611.8 2664.51 1336.91 2751.7 1117.48C2845.28 882.002 2846.33 650.103 2846.33 645.952C2846.33 621.1 2826.18 600.953 2801.33 600.952H2781.72C2756.87 600.952 2736.72 621.1 2736.72 645.952L2736.72 645.978C2736.71 647.391 2736.33 700.714 2725.45 780.477C2714.54 860.509 2693.2 965.977 2651.76 1071.93L2649.77 1076.98C2592.66 1220.69 2514.57 1328.49 2417.59 1402.54C2321.55 1475.87 2204.45 1518.05 2065.11 1527.22L2061.82 1527.43C2039.32 1528.82 2017.73 1529.55 1997 1529.68V206.911C2037 194.217 2075.89 182.344 2112.66 171.559C2136.47 164.577 2150.13 139.652 2143.21 115.831L2137.76 97.0361C2134.42 85.5539 2126.66 75.8704 2116.17 70.1231C2106.02 64.5553 2094.12 63.1245 2082.95 66.1006L2081.88 66.4024C2068.48 70.3333 2038.25 79.3015 1997 92.155C1948 107.426 1883.44 128.181 1813.09 152.488C1796.61 120.936 1770.34 90.8965 1730.42 65.9524Z" fill="url(#paint0_linear_12_445)"/>
<mask id="mask0_12_445" style="mask-type:alpha" maskUnits="userSpaceOnUse" x="-971" y="0" width="3818" height="1689">
<path fill-rule="evenodd" clip-rule="evenodd" d="M1730.42 65.9524C1667.51 26.638 1570.69 -0.020032 1424.88 1.12947e-05L1419.03 0.0146597C1285.32 0.620532 1133.18 23.7392 974.419 65.9524C833.351 103.462 687.057 156.048 543.824 221.312L536.636 224.599C501.211 240.839 465.729 258.133 431.029 276.082C400.985 233.54 348.522 177.154 262.096 131.146C210.952 103.919 148.605 80.6954 72.957 65.9524C-1.86536 51.3704 -89.7008 45.0852 -192.581 51.4307L-192.592 51.4317C-597.312 76.4914 -788.413 351.381 -875.598 570.811C-963.071 790.911 -969.694 1007.89 -970.187 1038.68C-971.209 1051.58 -966.631 1064.56 -957.164 1074.04L-957.063 1074.14C-947.719 1083.5 -934.95 1088.09 -922.215 1087.24H-905.724C-880.871 1087.24 -860.724 1067.09 -860.724 1042.24L-860.723 1042.21C-860.713 1040.8 -860.333 987.356 -849.429 907.468C-838.314 826.04 -816.428 718.374 -773.58 610.744L-773.575 610.731C-716.471 467.171 -638.39 359.494 -541.428 285.524C-444.66 211.702 -326.515 169.477 -185.817 160.761C-183.536 160.62 -181.263 160.486 -179 160.358V1499.35C-198.682 1505.37 -217.947 1511.14 -236.665 1516.63C-248.392 1520.07 -258.215 1528.13 -263.878 1538.96C-269.413 1549.55 -270.504 1561.89 -266.939 1573.27L-261.658 1591.46C-258.318 1602.96 -250.529 1612.66 -240.016 1618.4C-229.503 1624.15 -217.134 1625.46 -205.649 1622.06C-186.389 1616.34 -132.01 1600.16 -60.0308 1576.95C-22.8999 1564.98 18.9146 1551.14 63.0078 1535.91C70.3671 1550 79.6791 1563.78 91.2872 1576.95C147.188 1640.36 256.339 1689.38 457.073 1688.38C632.829 1687.51 840.441 1647.8 1053.07 1576.95C1148.33 1545.21 1244.6 1507.23 1339.46 1463.69C1374.89 1447.45 1410.37 1430.16 1445.07 1412.21C1475.11 1454.75 1527.58 1511.14 1614 1557.15C1626.93 1564.03 1640.57 1570.66 1654.96 1576.95C1753.83 1620.22 1888.07 1648 2068.68 1636.86L2068.69 1636.86C2473.41 1611.8 2664.51 1336.91 2751.7 1117.48C2845.28 882.002 2846.33 650.103 2846.33 645.952C2846.33 621.1 2826.18 600.953 2801.33 600.952H2781.72C2756.87 600.952 2736.72 621.1 2736.72 645.952L2736.72 645.978C2736.71 647.391 2736.33 700.714 2725.45 780.477C2714.54 860.509 2693.2 965.977 2651.76 1071.93L2649.77 1076.98C2592.66 1220.69 2514.57 1328.49 2417.59 1402.54C2321.55 1475.87 2204.45 1518.05 2065.11 1527.22L2061.82 1527.43C2039.32 1528.82 2017.73 1529.55 1997 1529.68V206.911C2037 194.217 2075.89 182.344 2112.66 171.559C2136.47 164.577 2150.13 139.652 2143.21 115.831L2137.76 97.0361C2134.42 85.5539 2126.66 75.8704 2116.17 70.1231C2106.02 64.5553 2094.12 63.1245 2082.95 66.1006L2081.88 66.4024C2068.48 70.3333 2038.25 79.3015 1997 92.155C1948 107.426 1883.44 128.181 1813.09 152.488C1796.61 120.936 1770.34 90.8965 1730.42 65.9524Z" fill="#191654"/>
</mask>
<g mask="url(#mask0_12_445)">
<path d="M-925.226 1042.34C-925.226 1040.12 -924.215 814.987 -833.779 587.431C-749.91 376.345 -570.048 119.89 -189.811 96.3459C209.928 71.6906 360.386 244.985 406.463 320.568C409.495 325.519 412.324 330.47 415.052 335.421C460.523 310.867 508.015 287.222 555.406 265.497C858.14 126.559 1173 46.1258 1419.25 45.0143C1662.37 43.8018 1747.75 117.869 1776.55 180.113C1780.9 189.511 1784.23 199.312 1786.65 209.417C1932.57 157.681 2062.51 118.98 2094.54 109.583L2100 128.378C2004.91 156.266 1895.89 191.329 1789.89 229.121C1796.36 289.041 1770.69 357.652 1716.43 420.907C1639.53 510.535 1505.65 584.703 1379.84 548.326C1325.18 532.563 1298.5 511.04 1298.5 482.444C1298.5 402.415 1547.38 295.306 1768.06 216.086C1765.94 206.486 1762.91 197.291 1758.77 188.399C1732.39 131.308 1652.06 63.5058 1419.25 64.6173C1175.73 65.8299 863.799 145.555 563.489 283.383C514.078 306.118 467.192 329.46 423.742 352.902C460.422 431.82 460.422 516.699 422.126 581.065C383.425 646.038 310.267 680.798 221.549 676.149C139.499 671.905 98.3732 648.362 99.3837 607.034C101 536.605 234.483 434.952 397.875 344.819C395.348 340.07 392.62 335.421 389.791 330.773C345.532 258.121 200.531 91.7987 -188.598 115.848C-485.472 134.238 -696.457 295.104 -815.388 594.1C-904.612 818.221 -905.724 1040.02 -905.724 1042.24H-925.327L-925.226 1042.34ZM406.665 362.401C234.685 457.485 120.3 552.671 118.987 607.64V608.448C118.987 643.916 175.269 654.323 222.66 656.749C305.114 660.992 369.986 630.578 405.453 571.162C440.314 512.758 440.213 435.154 406.665 362.401ZM1770.89 235.992C1533.84 321.679 1318 420.3 1318 482.444C1318 505.482 1354.58 520.74 1385.2 529.632C1502.01 563.281 1631.14 490.325 1701.57 408.175C1750.78 350.78 1774.93 289.445 1770.89 235.992Z" fill="#FC9E49"/>
<rect x="-218" y="741.952" width="2328" height="946" fill="url(#paint1_linear_12_445)"/>
<path d="M-224 1559.82C-128.915 1531.93 -19.8865 1496.86 86.1111 1459.07C79.6441 1399.05 105.31 1330.54 159.572 1267.29C236.468 1177.66 370.354 1103.49 496.157 1139.77C550.823 1155.53 577.499 1177.05 577.499 1205.65C577.499 1285.68 328.622 1392.79 107.937 1472.11C110.059 1481.71 113.09 1490.9 117.233 1499.79C143.606 1556.88 223.938 1624.69 456.749 1623.57C700.27 1622.36 1012.2 1542.64 1312.51 1404.81C1361.92 1382.07 1408.81 1358.73 1452.26 1335.29C1415.58 1256.37 1415.58 1171.49 1453.87 1107.13C1492.57 1042.15 1565.73 1007.5 1654.45 1012.04C1736.5 1016.29 1777.52 1039.33 1776.62 1081.16C1775 1151.59 1641.52 1253.24 1478.12 1343.37C1480.65 1348.12 1483.38 1352.77 1486.21 1357.42C1530.47 1430.07 1675.47 1596.39 2064.6 1572.34C2361.67 1553.95 2572.66 1392.89 2691.59 1093.59C2780.61 869.467 2781.72 648.175 2781.72 645.952H2801.33C2801.33 648.175 2800.32 873.306 2709.88 1100.86C2626.01 1311.95 2446.15 1568.4 2065.91 1591.95C1666.17 1616.6 1515.71 1443.31 1469.64 1367.73C1466.61 1362.77 1463.78 1357.82 1461.05 1352.87C1415.58 1377.43 1368.09 1401.07 1320.69 1422.8C1017.96 1561.73 703.1 1642.17 456.85 1643.38C213.733 1644.59 128.348 1570.53 99.5502 1508.28C95.2052 1498.88 91.8707 1489.08 89.4456 1478.98C-56.4652 1530.71 -186.411 1569.41 -218.442 1578.91L-223.899 1560.12L-224 1559.82ZM557.997 1205.75C557.997 1182.71 521.418 1167.45 490.801 1158.56C373.992 1124.91 244.855 1197.87 174.426 1280.02C125.216 1337.41 101.066 1398.65 105.108 1452.2C342.162 1366.51 557.997 1267.89 557.997 1205.75ZM1757.01 1079.84C1757.01 1044.38 1700.73 1033.97 1653.34 1031.54C1570.89 1027.3 1506.01 1057.72 1470.55 1117.13C1435.69 1175.54 1435.79 1253.14 1469.33 1325.89C1641.31 1230.81 1755.7 1135.62 1757.01 1080.65C1757.01 1080.35 1757.01 1080.15 1757.01 1079.84Z" fill="#FC9E49"/>
</g>
<defs>
<linearGradient id="paint0_linear_12_445" x1="2664.95" y1="2350.32" x2="-1525.72" y2="1286.89" gradientUnits="userSpaceOnUse">
<stop offset="0.278846" stop-color="#191654"/>
<stop offset="0.634615" stop-color="#3731BA"/>
<stop offset="1" stop-color="#FC9E49"/>
</linearGradient>
<linearGradient id="paint1_linear_12_445" x1="946" y1="776.787" x2="946" y2="1687.95" gradientUnits="userSpaceOnUse">
<stop stop-color="#191654" stop-opacity="0"/>
<stop offset="1" stop-color="#191654"/>
</linearGradient>
</defs>
</svg>
